<svg width="26" height="26" viewBox="0 0 26 26" fill="none" xmlns="http://www.w3.org/2000/svg">
<g clip-path="url(#clip0)">
<path d="M8.9375 7.36303C9.41428 7.36303 9.80078 6.97653 9.80078 6.49975C9.80078 6.02298 9.41428 5.63647 8.9375 5.63647C8.46072 5.63647 8.07422 6.02298 8.07422 6.49975C8.07422 6.97653 8.46072 7.36303 8.9375 7.36303Z" fill="#7B8794"/>
<path d="M8.31076 16.6828C8.61336 17.1209 9.26169 17.1207 9.56424 16.6828C9.61472 16.6097 10.8141 14.8695 12.0339 12.7667C13.7433 9.81999 14.5742 7.7701 14.5742 6.49986C14.5742 5.85499 14.465 5.23521 14.2648 4.65762C13.4165 2.21194 10.9647 0.587502 8.27826 0.901889C5.46406 1.23283 3.30078 3.6293 3.30078 6.49986C3.30078 7.7701 4.13171 9.81999 5.84111 12.7667C7.06093 14.8695 8.26028 16.6097 8.31076 16.6828V16.6828ZM8.9375 4.11314C10.2535 4.11314 11.3242 5.18381 11.3242 6.49986C11.3242 7.81591 10.2535 8.88658 8.9375 8.88658C7.62145 8.88658 6.55078 7.81591 6.55078 6.49986C6.55078 5.18381 7.62145 4.11314 8.9375 4.11314Z" fill="#7B8794"/>
<path d="M25.3868 5.75284C20.73 4.82725 18.7094 4.42455 17.8242 4.24951V23.678L25.0898 25.1221C25.5603 25.2155 26 24.8554 26 24.375V6.49998C26 6.13649 25.7432 5.82368 25.3868 5.75284Z" fill="#7B8794"/>
<path d="M8.17578 18.4034C7.7283 18.2451 7.33444 17.9499 7.05753 17.549C7.00578 17.4741 5.77632 15.6912 4.52339 13.5313C3.44495 11.6722 1.77734 8.63466 1.77734 6.49996C1.77734 5.75663 1.8913 5.03939 2.1025 4.36477L0.910203 4.12782C0.439969 4.03459 0 4.39412 0 4.87496V22.75C0 23.1134 0.256801 23.4262 0.613234 23.4971C5.2977 24.4281 7.30895 24.8283 8.17578 25.0004V18.4034Z" fill="#7B8794"/>
<path d="M16.3008 6.49976C16.152 6.52946 16.3008 6.49976 16.3008 6.49976C16.1527 7.35628 15.8554 8.34718 15.3569 9.5768C14.3732 12.0036 12.2617 15.4592 10.8177 17.5485C10.5406 17.9496 10.1467 18.2448 9.69922 18.4032V24.9994C10.5017 24.8392 12.2911 24.4809 16.3008 23.679V6.49976Z" fill="#7B8794"/>
</g>
<defs>
<clipPath id="clip0">
<rect width="26" height="26" fill="white"/>
</clipPath>
</defs>
</svg>
