<svg width="46" height="20" viewBox="0 0 46 20" fill="none" xmlns="http://www.w3.org/2000/svg">
<path d="M45.515 11.9022V11.8949V11.7916C45.515 11.6418 45.4823 11.4198 45.3626 10.9481C45.2437 10.4798 45.0433 9.78144 44.7176 8.68645C44.5846 8.26047 44.4844 7.90231 44.4391 7.7261C44.1744 6.72637 43.5929 5.84925 42.7807 5.23591C41.8978 4.57126 41.1855 4.05949 40.6298 3.70877L40.473 3.60978L40.5534 3.44267C40.5621 3.42468 40.5713 3.40333 40.5828 3.37651L40.5836 3.37462C40.5935 3.35154 40.6053 3.32398 40.6176 3.29809C40.6491 3.22413 40.6748 3.15622 40.6954 3.10152L40.6956 3.10115L40.7121 3.0576L40.7272 3.01782L40.7406 3.0039C40.7427 3.00024 40.7451 2.99623 40.7479 2.99196C40.8599 2.73818 40.8663 2.45051 40.7693 2.20099C40.6588 1.94493 40.4501 1.74971 40.2022 1.66624C39.912 1.57703 39.6104 1.49868 39.308 1.4313L38.2335 1.2397C38.223 1.23901 38.2096 1.23756 38.195 1.23453C38.1807 1.23155 38.1671 1.22753 38.1542 1.22279L33.2574 0.515958C31.5759 0.322068 29.8834 0.219402 28.1909 0.207965C26.7103 0.207965 25.3257 0.208053 23.821 0.310662C22.4742 0.413035 21.1373 0.629157 19.8213 0.936621L19.8153 0.93801L19.8153 0.937922C19.6243 0.976667 19.3118 1.08639 18.9275 1.24244C18.5478 1.39664 18.1119 1.59028 17.6804 1.78948C16.8175 2.18778 15.9789 2.60515 15.6543 2.7667L15.5528 2.81714L15.5236 2.83147L15.5132 2.83644L15.5111 2.83743C15.1121 3.04006 14.727 3.25038 14.3475 3.45763L14.3474 3.45765L14.346 3.45845L45.515 11.9022ZM45.515 11.9022L45.5155 11.9095M45.515 11.9022L45.5155 11.9095M45.5155 11.9095C45.5467 12.353 45.4949 12.7856 45.3589 13.2201C45.343 13.2694 45.3183 13.3217 45.2828 13.3769C44.2146 15.0406 43.9132 15.2058 43.7905 15.273C43.7903 15.2731 43.79 15.2733 43.7898 15.2734L43.7822 15.2764L43.7807 15.277L43.7612 15.2844L43.757 15.286M45.5155 11.9095L43.757 15.286M43.757 15.286L43.7464 15.2899C43.4656 15.3938 43.1785 15.4492 42.8839 15.4492H42.7328L42.6861 15.593C42.0388 17.5872 40.2489 18.9137 38.2435 18.9248C36.5241 18.9245 34.9371 17.9385 34.1209 16.3534L34.0628 16.2407H33.936H16.2313H16.215L16.1989 16.2432C16.1617 16.2491 16.1234 16.2522 16.0843 16.2522H13.9744H13.8486L13.7902 16.3636C12.5504 18.7292 9.70702 19.5917 7.43752 18.3093L7.43738 18.3093C6.58115 17.8263 5.89302 17.0794 5.46914 16.1661L5.41848 16.0569L5.2986 16.0465C4.12906 15.9443 2.97053 15.7401 1.83389 15.4337C0.870061 15.1622 0.197962 14.2404 0.208077 13.1818C0.219075 12.2236 0.329321 10.8119 0.564974 9.95494C0.723246 9.39656 0.986322 8.88381 1.34249 8.44851C1.57839 8.1657 2.05378 7.84914 2.69523 7.52592C3.32969 7.20623 4.10118 6.89227 4.90294 6.60645C6.50788 6.03431 8.21336 5.58221 9.14815 5.42416C10.6731 5.16989 11.7351 4.85532 12.6788 4.35957C13.0451 4.16935 13.3926 3.97925 13.7378 3.79038L13.7386 3.7899C13.854 3.7268 13.969 3.66383 14.0848 3.60089C14.1715 3.55372 14.2586 3.50617 14.3459 3.45846L43.757 15.286ZM40.7302 3.024C40.7294 3.02567 40.7296 3.02512 40.7307 3.02298L40.7302 3.024Z" fill="#5AB464" stroke="#418A3F" stroke-width="0.415929"/>
</svg>
