<svg width="27" height="18" viewBox="0 0 27 18" fill="none" xmlns="http://www.w3.org/2000/svg">
<path d="M6.67572e-06 1.5C6.67572e-06 0.671573 0.684748 0 1.52942 0L24.4999 0C25.3446 0 26.0293 0.671573 26.0293 1.5C26.0293 2.32843 25.3446 3 24.4999 3H1.52942C0.684748 3 6.67572e-06 2.32843 6.67572e-06 1.5Z" fill="#7B8794"/>
<path d="M6.67572e-06 9C6.67572e-06 8.17157 0.684748 7.5 1.52942 7.5H24.4999C25.3446 7.5 26.0293 8.17157 26.0293 9C26.0293 9.82843 25.3446 10.5 24.4999 10.5H1.52942C0.684748 10.5 6.67572e-06 9.82843 6.67572e-06 9Z" fill="#7B8794"/>
<path d="M6.67572e-06 16.5C6.67572e-06 15.6716 0.684748 15 1.52942 15H24.4999C25.3446 15 26.0293 15.6716 26.0293 16.5C26.0293 17.3284 25.3446 18 24.4999 18H1.52942C0.684748 18 6.67572e-06 17.3284 6.67572e-06 16.5Z" fill="#7B8794"/>
</svg>
