<svg width="21" height="21" viewBox="0 0 21 21" fill="none" xmlns="http://www.w3.org/2000/svg">
<path fill-rule="evenodd" clip-rule="evenodd" d="M2.91956 7.68046C2.91956 5.01251 5.1718 2.82964 7.92453 2.82964C10.6773 2.82964 12.9295 5.01251 12.9295 7.68046C12.9295 10.3484 10.6773 12.5313 7.92453 12.5313C5.1718 12.5313 2.91956 10.3484 2.91956 7.68046ZM7.92453 0C3.54518 0 0 3.436 0 7.68046C0 11.9249 3.54518 15.3609 7.92453 15.3609C9.46773 15.3609 10.9275 14.9163 12.1787 14.1886C12.2622 14.3908 12.3873 14.5929 12.5541 14.795L18.5184 20.5756C19.1023 21.1415 20.0199 21.1415 20.5621 20.5756C21.146 20.0096 21.146 19.1203 20.5621 18.5948L14.5978 12.7738C14.4727 12.6526 14.3059 12.5313 14.139 12.4504C15.2234 11.1569 15.8491 9.49952 15.8491 7.68046C15.8491 3.436 12.3039 0 7.92453 0Z" fill="#7B8794"/>
</svg>
