<svg width="29" height="29" viewBox="0 0 29 29" fill="none" xmlns="http://www.w3.org/2000/svg">
<path d="M14.25 9.06817C11.3871 9.06817 9.06823 11.3871 9.06823 14.25C9.06823 17.1129 11.3871 19.4318 14.25 19.4318C17.113 19.4318 19.4318 17.1129 19.4318 14.25C19.4318 11.3871 17.1129 9.06817 14.25 9.06817ZM25.8314 12.9545C25.2355 7.55248 20.9475 3.26455 15.5455 2.66866V0H12.9545V2.66866C7.55248 3.26455 3.26455 7.55248 2.66866 12.9545H0V15.5455H2.66866C3.26455 20.9475 7.55255 25.2355 12.9546 25.8314V28.5001H15.5455V25.8314C20.9475 25.2355 25.2355 20.9475 25.8314 15.5455H28.5001V12.9545H25.8314ZM14.25 23.3182C9.24311 23.3182 5.18186 19.2569 5.18186 14.25C5.18186 9.24311 9.24311 5.18186 14.25 5.18186C19.2569 5.18186 23.3182 9.24305 23.3182 14.25C23.3182 19.257 19.2569 23.3182 14.25 23.3182Z" fill="#7B8794"/>
</svg>
