<svg width="37" height="35" viewBox="0 0 37 35" fill="none" xmlns="http://www.w3.org/2000/svg">
<path d="M20.7064 20.3508V21.1465H22.3914V19.5552H20.7064V20.3508Z" fill="#7B8794"/>
<path d="M18.9646 21.1642L18.9534 22.7201C18.9496 23.5759 18.9534 24.2973 18.9609 24.3185L18.9796 24.361H22.3907V22.805H21.5706C21.1176 22.805 20.7244 22.7944 20.6308 22.7626V21.1465L18.9646 21.1642Z" fill="#7B8794"/>
<path d="M3.4823 16.2678H5.1223L5.14477 16.2112C5.156 16.1794 5.16724 15.8081 5.16724 14.6057L5.19719 14.6093C5.21217 14.6128 5.59034 14.6128 6.85217 14.6057V13.0144H3.4823V14.6411V16.2678Z" fill="#7B8794"/>
<path d="M3.4823 5.71165V8.13399H8.612V3.28931H3.4823V5.71165Z" fill="#7B8794"/>
<path d="M17.2609 10.5727V11.3506H18.9084V9.79468H17.2609V10.5727Z" fill="#7B8794"/>
<path d="M12.0192 0H0V5.67571V11.3514H12.0192V0ZM10.3268 9.75303C10.2931 9.78486 9.28962 9.79546 6.02833 9.79546C3.68814 9.79546 1.75608 9.78132 1.72987 9.76717C1.69243 9.74596 1.68494 8.90432 1.70366 1.62668L10.3343 1.609L10.353 1.65497C10.3642 1.67973 10.3717 3.50444 10.3717 5.704C10.3717 8.77348 10.3605 9.7212 10.3268 9.75303Z" fill="#7B8794"/>
<path d="M29.3177 22.7555V24.3645H31.0026V21.1465H29.3177V22.7555Z" fill="#7B8794"/>
<path d="M24.1508 21.9421V22.7378H25.7982V21.1465H24.1508V21.9421Z" fill="#7B8794"/>
<path d="M31.0403 21.1478H32.6878V16.3031H31.0028V13.0144H29.3179V17.8874L29.258 17.9086C29.2243 17.9192 28.0636 17.9298 24.1508 17.9298V19.4858H25.8282L25.8507 19.5424C25.8619 19.5742 25.8731 19.9455 25.8731 20.3734V21.1478H27.5581V19.4858H30.9953L31.0178 19.5424C31.029 19.5742 31.0403 19.9455 31.0403 21.1478Z" fill="#7B8794"/>
<path d="M27.558 5.71165V8.13399H32.6877V3.28931H27.558V5.71165Z" fill="#7B8794"/>
<path d="M15.5389 13.8023C15.5389 14.3681 15.5277 14.6015 15.494 14.6333C15.4603 14.6652 15.2132 14.6758 13.7791 14.6758V19.4851L15.4828 19.4674L15.4528 16.2671H17.2613V17.8549C17.2613 18.7283 17.2501 19.4674 17.2164 19.5558H15.5389V21.1471H13.7791V23.5872V26.0272H17.1864V24.4359H16.3702C15.9209 24.4359 15.5352 24.4217 15.509 24.4076C15.4715 24.3864 15.4641 24.1919 15.4828 22.7561L17.2239 22.7385V21.1471H18.9088V20.3727C18.9088 19.9448 18.92 19.5735 18.9537 19.4851H20.6312V16.2742L20.6911 16.2529C20.7248 16.2423 21.8855 16.2317 25.7983 16.2317V13.0137H24.1508V13.8023C24.1508 14.3681 24.1396 14.6015 24.1059 14.6333C24.0722 14.6652 23.8251 14.6758 22.391 14.6758V8.13366H20.6312V4.88737L20.6911 4.86615C20.7248 4.85554 21.118 4.84493 22.391 4.84493V0.000244141H20.7061L20.6874 3.27129H18.9275L18.9088 0.000244141H13.7791V3.21825L15.4828 3.20057L15.494 1.60925L16.3477 1.59864C17.003 1.59157 17.2089 1.59864 17.2314 1.634C17.2463 1.65875 17.2613 2.39076 17.2613 4.8414L18.9275 4.85908L18.9463 9.72498H19.7775C20.2343 9.72498 20.6312 9.73913 20.6574 9.75327C20.6948 9.77449 20.7023 9.96899 20.6836 11.4047L18.9463 11.4224V14.6758H17.2314L17.2089 14.6192C17.1977 14.5874 17.1864 13.8553 17.1864 11.4224H15.4528L15.4828 9.81339L13.7791 9.79571V13.0137H15.5389V13.8023Z" fill="#7B8794"/>
<path d="M13.7791 13.0144H8.612V14.6057H13.7791V13.0144Z" fill="#7B8794"/>
<path d="M17.2052 4.8983L13.7791 4.88062V5.67628V6.47194H17.2239L17.2052 4.8983Z" fill="#7B8794"/>
<path d="M36.17 0.000244141H24.1508V5.67596V11.3517H36.17V0.000244141ZM34.4401 9.76742C34.4139 9.78156 32.4781 9.79571 30.1416 9.79571C26.8841 9.79571 25.8806 9.7851 25.8432 9.75327C25.8095 9.72145 25.7983 8.77373 25.7983 5.70778C25.7983 3.50469 25.8057 1.68351 25.8357 1.60925L34.4663 1.62693L34.4775 5.68303C34.485 8.90457 34.4775 9.74266 34.4401 9.76742Z" fill="#7B8794"/>
<path d="M13.7791 33.365V34.1607H17.2239V32.5693H13.7791V33.365Z" fill="#7B8794"/>
<path d="M31.04 25.2324V26.0281H34.4099V24.4368H31.04V25.2324Z" fill="#7B8794"/>
<path d="M29.2432 24.4355H27.5583V22.8088H25.8733V26.0268H20.7137L20.6912 26.0834C20.68 26.1152 20.6688 26.4724 20.6688 27.6182H24.106L24.1285 27.6747C24.1397 27.7066 24.151 28.4386 24.151 30.8715L25.8546 30.8892L25.8659 31.6955L25.8733 32.4982H27.5583V29.2802H34.4104V27.6889L29.2619 27.6712L29.2432 24.4355Z" fill="#7B8794"/>
<path d="M34.4852 31.7179V32.4959H36.1702V30.9399H34.4852V31.7179Z" fill="#7B8794"/>
<path d="M31.04 31.7179V32.4959H32.6875V30.9399H31.04V31.7179Z" fill="#7B8794"/>
<path d="M34.4852 26.8228V27.6184H36.1702V26.0271H34.4852V26.8228Z" fill="#7B8794"/>
<path d="M27.558 33.365V34.1607H29.2429V32.5693H27.558V33.365Z" fill="#7B8794"/>
<path d="M1.72244 17.1377C1.72244 14.9311 1.71121 13.1028 1.67751 13.0144H6.10352e-05V17.0811V21.1478H1.72244V17.1377Z" fill="#7B8794"/>
<path d="M34.4852 17.08V17.858H36.1702V16.302H34.4852V17.08Z" fill="#7B8794"/>
<path d="M32.7627 13.8101V14.6057H36.17V13.0144H32.7627V13.8101Z" fill="#7B8794"/>
<path d="M6.10352e-05 28.4845V34.1603H12.0193V22.8088H6.10352e-05V28.4845ZM1.7524 24.3825C1.77861 24.3719 3.71067 24.3648 6.04337 24.3648C9.28968 24.3648 10.2932 24.3754 10.3269 24.4072C10.3606 24.4391 10.3718 25.3868 10.3718 28.4527C10.3718 30.6558 10.3606 32.4805 10.3493 32.5124L10.3269 32.5689H1.72244V32.5406C1.72244 32.5265 1.7187 30.6876 1.70372 24.4002L1.7524 24.3825Z" fill="#7B8794"/>
<path d="M8.612 26.0271H3.4823V28.4494V30.8718H8.612V26.0271Z" fill="#7B8794"/>
<path d="M10.2969 17.9287L8.63072 17.911L8.612 16.302H5.16724V19.5554H3.4823V20.351V21.1467H12.0193V19.5554L10.3157 19.5377L10.2969 17.9287Z" fill="#7B8794"/>
<path d="M10.3719 17.08V17.858H12.0194V16.302H10.3719V17.08Z" fill="#7B8794"/>
<path d="M22.3908 32.5489V34.1579H24.0758V30.9399H22.3908V32.5489Z" fill="#7B8794"/>
<path d="M18.9313 27.6326C18.92 27.6007 18.9088 27.2294 18.9088 26.0271H17.2613V26.8015C17.2613 27.2294 17.2501 27.6007 17.2164 27.6891H13.7791V30.8718L17.2426 30.8895L17.2538 31.6957L17.2613 32.4985H18.9088V29.2805H20.6312V27.6891H18.9537L18.9313 27.6326Z" fill="#7B8794"/>
<path d="M22.3911 29.2793L20.6875 29.297L20.6763 30.0856L20.6688 30.8706H22.3911V29.2793Z" fill="#7B8794"/>
</svg>
