<svg width="26" height="18" viewBox="0 0 26 18" fill="none" xmlns="http://www.w3.org/2000/svg">
<path d="M5.35294 1.5C5.35294 0.671573 6.03768 0 6.88235 0H24.4706C25.3153 0 26 0.671573 26 1.5C26 2.32843 25.3153 3 24.4706 3H6.88235C6.03768 3 5.35294 2.32843 5.35294 1.5Z" fill="#7B8794"/>
<path d="M0 1.5C0 0.671573 0.684741 0 1.52941 0C2.37408 0 3.05882 0.671573 3.05882 1.5C3.05882 2.32843 2.37408 3 1.52941 3C0.684741 3 0 2.32843 0 1.5Z" fill="#7B8794"/>
<path d="M5.35294 9C5.35294 8.17157 6.03768 7.5 6.88235 7.5H24.4706C25.3153 7.5 26 8.17157 26 9C26 9.82843 25.3153 10.5 24.4706 10.5H6.88235C6.03768 10.5 5.35294 9.82843 5.35294 9Z" fill="#7B8794"/>
<path d="M0 9C0 8.17157 0.684741 7.5 1.52941 7.5C2.37408 7.5 3.05882 8.17157 3.05882 9C3.05882 9.82843 2.37408 10.5 1.52941 10.5C0.684741 10.5 0 9.82843 0 9Z" fill="#7B8794"/>
<path d="M5.35294 16.5C5.35294 15.6716 6.03768 15 6.88235 15H24.4706C25.3153 15 26 15.6716 26 16.5C26 17.3284 25.3153 18 24.4706 18H6.88235C6.03768 18 5.35294 17.3284 5.35294 16.5Z" fill="#7B8794"/>
<path d="M0 16.5C0 15.6716 0.684741 15 1.52941 15C2.37408 15 3.05882 15.6716 3.05882 16.5C3.05882 17.3284 2.37408 18 1.52941 18C0.684741 18 0 17.3284 0 16.5Z" fill="#7B8794"/>
</svg>
